#!OML:ASF F:\VICON\USERDATA\Patient Classification 1\PLAYGROUND\JustinFriday\JustinFriday.ASF
:FULLY-SPECIFIED
:DEGREES
2015
root 27.263 17.9339 40.526 -358.567 -190.005 1.70535
lowerback 7.64568 5.34681 -5.42925
upperback 1.75083 6.94508 3.40584
thorax -3.51076 3.59855 5.80166
lowerneck -1.86381 1.8649 6.52652
upperneck 2.65718 2.4069 -4.10462
head 1.30418 1.20766 -2.39793
rclavicle -2.13694e-014 3.18055e-015
rhumerus -30.0156 -12.3928 -74.0145
rradius 38.0873
rwrist -13.662
rhand -19.3997 -26.3373
rfingers 7.12502
rthumb 6.91935 -56.2043
lclavicle -2.13694e-014 3.18055e-015
lhumerus -25.8927 -14.0295 98.8604
lradius 35.5644
lwrist 5.89503
lhand -21.724 -6.22828
lfingers 7.12502
lthumb 4.67529 23.7001
rfemur -25.8608 2.31622 17.8982
rtibia 26.2791
rfoot -1.86897 -6.10371
rtoes 18.1859
lfemur 10.7822 0.410952 -22.3677
ltibia 23.891
lfoot -1.26273 -18.3652
ltoes 7.95235
2016
root 27.3092 17.9524 40.3768 -358.438 -188.947 2.29073
lowerback 7.6279 5.25235 -4.62161
upperback 1.61816 6.89815 3.55353
thorax -3.55776 3.57477 5.50728
lowerneck -1.77163 1.86404 6.92993
upperneck 2.67073 2.40444 -4.27766
head 1.30324 1.20906 -2.53131
rclavicle 2.38542e-015 -6.83819e-014
rhumerus -30.2056 -13.2804 -73.5569
rradius 37.4242
rwrist -14.1377
rhand -18.7085 -25.3535
rfingers 7.12502
rthumb 7.58652 -55.1975
lclavicle 2.38542e-015 -6.83819e-014
lhumerus -26.3307 -14.7608 98.9408
lradius 34.8803
lwrist 5.60519
lhand -25.9944 0.0618786
lfingers 7.12502
lthumb 0.551187 30.0409
rfemur -25.2885 2.08653 18.5117
rtibia 26.4036
rfoot -1.92215 -6.61546
rtoes 18.8711
lfemur 9.54915 -0.199977 -21.4183
ltibia 26.3557
lfoot -0.232182 -18.6781
ltoes 7.52949
2017
root 27.3524 17.9686 40.225 -358.517 -188.024 2.69943
lowerback 7.63654 5.20944 -3.96015
upperback 1.58845 6.90942 3.6587
thorax -3.53119 3.57808 5.24492
lowerneck -1.50836 1.74619 7.45851
upperneck 2.22643 2.25407 -4.55772
head 1.11938 1.13464 -2.72804
rclavicle 5.1684e-015 -5.96354e-014
rhumerus -30.3843 -13.967 -73.2804
rradius 36.8579
rwrist -13.9766
rhand -18.3498 -24.4832
rfingers 7.12502
rthumb 7.93276 -54.3144
lclavicle 5.1684e-015 -5.96354e-014
lhumerus -26.8832 -15.6773 99.0702
lradius 34.4522
lwrist 5.61532
lhand -27.0744 2.06002
lfingers 7.12502
lthumb -0.491976 32.0392
rfemur -24.5782 1.91843 18.9706
rtibia 26.5219
rfoot -2.16231 -7.20324
rtoes 17.3718
lfemur 8.47329 -0.849601 -20.7373
ltibia 28.904
lfoot 1.17104 -18.662
ltoes 6.76161
2018
root 27.3941 17.9877 40.0717 -358.726 -187.33 2.79993
lowerback 7.69448 5.25904 -3.64231
upperback 1.598 7.00718 3.68469
thorax -3.53136 3.62548 5.07732
lowerneck -1.32076 1.65948 7.95134
upperneck 1.70069 2.14049 -4.80862
head 0.922567 1.07621 -2.9087
rclavicle -4.01545e-014 9.54166e-015
rhumerus -30.5181 -14.5592 -73.0206
rradius 36.2956
rwrist -13.0356
rhand -17.538 -23.743
rfingers 7.12502
rthumb 8.71616 -53.5431
lclavicle -4.01545e-014 9.54166e-015
lhumerus -27.4354 -16.4638 99.1135
lradius 34.1152
lwrist 5.66239
lhand -27.0627 2.37725
lfingers 7.12502
lthumb -0.480612 32.3565
rfemur -23.7446 1.85592 19.0993
rtibia 26.5791
rfoot -2.19934 -7.77127
rtoes 18.7435
lfemur 7.44101 -1.28303 -20.4508
ltibia 31.5118
lfoot 2.82707 -18.3515
ltoes 6.38674
2019
root 27.4382 18.0124 39.9282 -358.927 -186.962 3.18262
lowerback 7.89364 5.39464 -3.0941
upperback 1.60216 7.24618 3.77491
thorax -3.6112 3.74503 4.81658
lowerneck -1.28543 1.535 8.41812
upperneck 1.35104 1.9676 -5.06672
head 0.803123 0.987007 -3.08879
rclavicle -2.94201e-014 -4.45278e-014
rhumerus -30.589 -15.0275 -72.7943
rradius 35.6372
rwrist -12.9579
rhand -17.3353 -23.2063
rfingers 7.12502
rthumb 8.91183 -52.9981
lclavicle -2.94201e-014 -4.45278e-014
lhumerus -27.7915 -16.9724 98.9891
lradius 33.7056
lwrist 5.76277
lhand -25.6135 1.03439
lfingers 7.12502
lthumb 0.919011 31.0122
rfemur -22.8876 1.99579 19.5635
rtibia 26.5918
rfoot -2.90821 -8.105
rtoes 19.0214
lfemur 6.39379 -1.28949 -19.8168
ltibia 34.1075
lfoot 4.21106 -17.9816
ltoes 4.74687
2020
root 27.4833 18.0337 39.7945 -359.201 -186.822 3.69311
lowerback 8.22887 5.59764 -2.44917
upperback 1.63574 7.59227 3.89979
thorax -3.73556 3.91895 4.51196
lowerneck -1.74284 1.62418 8.53129
upperneck 1.91443 2.05182 -4.94753
head 1.0717 1.0328 -3.06676
rclavicle 8.75646e-014 7.95139e-015
rhumerus -30.6727 -15.3961 -72.6003
rradius 34.9137
rwrist -11.8123
rhand -17.7142 -24.2122
rfingers 7.12502
rthumb 8.54618 -54.0192
lclavicle 8.75646e-014 7.95139e-015
lhumerus -27.9605 -17.6075 98.8543
lradius 33.1296
lwrist 5.85567
lhand -23.7764 -0.918708
lfingers 7.12502
lthumb 2.69329 29.044
rfemur -21.9458 2.18284 20.2165
rtibia 26.4743
rfoot -2.86667 -8.19181
rtoes 21.1092
lfemur 5.35824 -1.01995 -19.006
ltibia 36.7751
lfoot 5.38657 -17.6694
ltoes 2.87702
2021
root 27.5296 18.061 39.6592 -359.251 -186.343 4.23414
lowerback 8.32924 5.68881 -1.84689
upperback 1.58353 7.78957 4.03995
thorax -3.80686 4.01835 4.2855
lowerneck -3.14062 1.94205 7.9635
upperneck 3.94339 2.34961 -3.71294
head 1.96908 1.20503 -2.53477
rclavicle -3.27995e-014 -1.03368e-014
rhumerus -30.6984 -15.8383 -72.3981
rradius 34.2832
rwrist -12.1302
rhand -19.236 -25.9912
rfingers 7.12502
rthumb 7.07733 -55.8529
lclavicle -3.27995e-014 -1.03368e-014
lhumerus -28.1296 -18.3304 98.7585
lradius 32.4465
lwrist 5.53855
lhand -22.2836 -2.90445
lfingers 7.12502
lthumb 4.13491 27.0352
rfemur -21.0401 2.23982 20.8901
rtibia 26.1027
rfoot -2.7454 -8.73627
rtoes 22.8069
lfemur 3.89426 -0.858901 -18.0671
ltibia 39.5141
lfoot 6.46643 -17.5993
ltoes 0.248132
2022
root 27.5735 18.0884 39.5232 -359.285 -185.547 4.98459
lowerback 8.44989 5.65858 -0.984866
upperback 1.50024 7.86265 4.2338
thorax -3.88137 4.05605 3.98584
lowerneck -2.73952 2.11525 8.10898
upperneck 3.07225 2.60809 -3.76582
head 1.63224 1.3271 -2.57016
rclavicle -7.32522e-014 -4.37326e-014
rhumerus -30.7276 -16.6968 -71.932
rradius 33.2732
rwrist -11.0845
rhand -19.4087 -24.1114
rfingers 7.12502
rthumb 6.91062 -53.9786
lclavicle -7.32522e-014 -4.37326e-014
lhumerus -28.4445 -18.8659 98.6627
lradius 32.0401
lwrist 5.33123
lhand -20.6774 -4.54524
lfingers 7.12502
lthumb 5.68586 25.3585
rfemur -19.961 1.90565 21.8244
rtibia 25.4789
rfoot -2.82161 -9.35053
rtoes 22.0326
lfemur 2.26972 -0.843048 -16.853
ltibia 42.2194
lfoot 7.62605 -17.596
ltoes -4.89923
2023
root 27.6125 18.1126 39.3847 -359.468 -184.658 5.82752
lowerback 8.63421 5.54693 0.080569
upperback 1.47928 7.85967 4.43474
thorax -3.89345 4.05556 3.59043
lowerneck -2.81177 2.16288 8.11865
upperneck 3.53444 2.64269 -3.33729
head 1.78903 1.35603 -2.4275
rclavicle -3.13086e-014 1.03368e-014
rhumerus -30.7154 -17.2054 -71.6533
rradius 32.4986
rwrist -10.536
rhand -18.9084 -23.0088
rfingers 7.12502
rthumb 7.39354 -52.8596
lclavicle -3.13086e-014 1.03368e-014
lhumerus -28.694 -19.1393 98.4486
lradius 31.6663
lwrist 5.53416
lhand -18.5349 -6.52025
lfingers 7.12502
lthumb 7.75405 23.3176
rfemur -18.6394 1.26567 22.8729
rtibia 24.6166
rfoot -2.78328 -9.60852
rtoes 20.4876
lfemur 0.736399 -0.918082 -15.6144
ltibia 44.8091
lfoot 8.54195 -17.5957
ltoes -11.1357
2024
root 27.6481 18.1463 39.2489 -359.667 -184.059 6.44935
lowerback 8.80252 5.52374 0.928873
upperback 1.48361 7.94697 4.55746
thorax -3.89332 4.09896 3.22529
lowerneck -2.60397 2.06989 8.42301
upperneck 3.20681 2.52114 -3.33416
head 1.64353 1.29478 -2.48617
rclavicle 1.04362e-014 2.62396e-014
rhumerus -30.6151 -17.2925 -71.658
rradius 31.8205
rwrist -10.3845
rhand -18.4528 -23.0841
rfingers 7.12502
rthumb 7.83335 -52.919
lclavicle 1.04362e-014 2.62396e-014
lhumerus -28.7142 -19.0924 98.0166
lradius 31.059
lwrist 5.89191
lhand -16.1114 -7.9853
lfingers 7.12502
lthumb 10.0927 21.7527
rfemur -17.3304 0.757663 23.6648
rtibia 23.6368
rfoot -2.53886 -9.73975
rtoes 20.5871
lfemur -0.801503 -0.778995 -14.7364
ltibia 47.2357
lfoot 7.95796 -18.134
ltoes -25.0265
2025
root 27.6818 18.1923 39.1155 -359.851 -183.608 6.81302
lowerback 8.93754 5.57039 1.48033
upperback 1.48745 8.08691 4.61218
thorax -3.9058 4.16765 2.9494
lowerneck -2.31806 2.02916 8.74403
upperneck 2.70329 2.48067 -3.389
head 1.43388 1.27001 -2.5655
rclavicle 5.32743e-014 -8.26944e-014
rhumerus -30.5172 -17.4226 -71.6262
rradius 31.1257
rwrist -11.0148
rhand -19.0658 -23.207
rfingers 7.12502
rthumb 7.2416 -53.0631
lclavicle 5.32743e-014 -8.26944e-014
lhumerus -29.0829 -19.6209 98.0163
lradius 30.7052
lwrist 4.66276
lhand -16.492 -7.32874
lfingers 7.12502
lthumb 9.72552 22.4267
rfemur -16.1644 0.276727 24.166
rtibia 22.8454
rfoot -2.58947 -9.85194
rtoes 18.2922
lfemur -2.36438 -0.598158 -14.1954
ltibia 49.6278
lfoot 7.04236 -18.5334
ltoes -36.3514
2026
root 27.712 18.228 38.9836 -359.952 -183.062 7.00875
lowerback 8.97723 5.5923 1.86199
upperback 1.44681 8.16441 4.61713
thorax -3.92273 4.20328 2.73075
lowerneck -1.95995 2.11109 8.92632
upperneck 2.14886 2.61705 -3.42314
head 1.2043 1.33114 -2.60921
rclavicle -3.18055e-015 -3.49861e-014
rhumerus -30.4951 -17.513 -71.5713
rradius 30.3755
rwrist -10.9166
rhand -19.236 -23.2679
rfingers 7.12502
rthumb 7.0773 -53.1296
lclavicle -3.18055e-015 -3.49861e-014
lhumerus -29.4188 -19.4954 97.7473
lradius 30.5087
lwrist 3.7517
lhand -15.5272 -6.87216
lfingers 7.12502
lthumb 10.6562 22.8376
rfemur -15.1786 -0.197988 24.4414
rtibia 22.1538
rfoot -2.94623 -10.0687
rtoes 14.9855
lfemur -4.03464 -0.411491 -13.8875
ltibia 51.9534
lfoot 5.80192 -18.8184
ltoes -42.8365
2027
root 27.7407 18.2213 38.8646 -360.112 -182.633 7.21984
lowerback 9.09503 5.67203 2.25066
upperback 1.44344 8.3268 4.63558
thorax -3.94731 4.28225 2.5056
lowerneck -1.52465 2.12261 8.98783
upperneck 1.2754 2.66742 -3.34124
head 0.84963 1.34223 -2.59549
rclavicle 3.32964e-014 3.57812e-014
rhumerus -30.3718 -17.6307 -71.5461
rradius 29.6472
rwrist -10.6888
rhand -19.8453 -21.9155
rfingers 7.12502
rthumb 6.4892 -51.7961
lclavicle 3.32964e-014 3.57812e-014
lhumerus -29.7203 -19.5743 97.4831
lradius 30.4249
lwrist 3.23997
lhand -14.2636 -6.573
lfingers 7.12502
lthumb 11.8749 23.0703
rfemur -14.3545 -0.390909 24.7165
rtibia 21.6952
rfoot -2.71278 -10.1317
rtoes 17.4538
lfemur -4.52952 -1.34048 -13.3103
ltibia 54.4283
lfoot 6.04756 -17.644
ltoes -39.9044
